<?xml version="1.0" encoding="UTF-8"?><svg id="Layer_2" xmlns="http://www.w3.org/2000/svg" xmlns:xlink="http://www.w3.org/1999/xlink" viewBox="0 0 1140 780"><defs><style>.cls-1{fill:url(#linear-gradient-2);}.cls-2{fill:#0049ff;}.cls-3{fill:url(#linear-gradient-6);}.cls-4{fill:none;stroke:#0049ff;stroke-miterlimit:10;}.cls-5{fill:#f9bb69;}.cls-6{fill:url(#linear-gradient-5);}.cls-7{fill:url(#linear-gradient-3);}.cls-8{fill:url(#linear-gradient);}.cls-9{fill:url(#linear-gradient-4);}.cls-10{opacity:.3;}</style><linearGradient id="linear-gradient" x1="18.94" y1="25.13" x2="53.77" y2="25.13" gradientTransform="matrix(1, 0, 0, 1, 0, 0)" gradientUnits="userSpaceOnUse"><stop offset="0" stop-color="#d66306"/><stop offset=".5" stop-color="#eb8206"/><stop offset=".86" stop-color="#f99606"/></linearGradient><linearGradient id="linear-gradient-2" y1="44.28" y2="44.28" xlink:href="#linear-gradient"/><linearGradient id="linear-gradient-3" y1="63.42" y2="63.42" xlink:href="#linear-gradient"/><linearGradient id="linear-gradient-4" y1="82.57" y2="82.57" xlink:href="#linear-gradient"/><linearGradient id="linear-gradient-5" y1="101.72" y2="101.72" xlink:href="#linear-gradient"/><linearGradient id="linear-gradient-6" y1="120.86" y2="120.86" xlink:href="#linear-gradient"/></defs><g id="TwoBg"><polygon class="cls-5" points="48.91 744.91 2.99 699.05 2.99 462.61 26.23 439.16 26.23 190.15 72.71 143.26 72.71 3 534.12 3 580.92 49.73 1091.09 49.8 1137.01 95.67 1137.01 699.05 1091.09 744.91 48.91 744.91"/></g><g id="ThreeBG"><polygon class="cls-2" points="2.99 462.61 26.23 439.16 26.23 190.15 72.71 143.26 72.71 .98 2.99 .98 2.99 462.61"/><g class="cls-10"><g><polygon class="cls-4" points="255.7 562.58 179.66 562.58 141.64 628.34 179.66 694.09 255.7 694.09 293.72 628.34 255.7 562.58"/><polygon class="cls-4" points="369.86 496.83 293.82 496.83 255.8 562.58 293.82 628.34 369.86 628.34 407.88 562.58 369.86 496.83"/><polygon class="cls-4" points="483.81 562.58 407.77 562.58 369.75 628.34 407.77 694.09 483.81 694.09 521.83 628.34 483.81 562.58"/><polygon class="cls-4" points="940.88 431.07 864.84 431.07 826.83 496.83 864.84 562.58 940.88 562.58 978.9 496.83 940.88 431.07"/><polygon class="cls-4" points="1054.83 365.32 978.79 365.32 940.77 431.07 978.79 496.83 1054.83 496.83 1092.85 431.07 1054.83 365.32"/><polygon class="cls-4" points="1054.83 496.83 978.79 496.83 940.77 562.58 978.79 628.34 1054.83 628.34 1092.85 562.58 1054.83 496.83"/><polygon class="cls-4" points="1138.3 431.08 1138.3 562.58 1092.74 562.58 1092.71 562.53 1092.66 562.44 1054.71 496.82 1074.47 462.66 1092.74 431.08 1138.3 431.08"/><polygon class="cls-4" points="598.61 496.83 522.58 496.83 484.56 562.58 522.58 628.34 598.61 628.34 636.63 562.58 598.61 496.83"/><polygon class="cls-4" points="598.61 628.34 522.58 628.34 484.56 694.09 522.58 759.84 598.61 759.84 636.63 694.09 598.61 628.34"/><polygon class="cls-4" points="712.56 431.07 636.52 431.07 598.5 496.83 636.52 562.58 712.56 562.58 750.58 496.83 712.56 431.07"/><polygon class="cls-4" points="826.51 496.83 750.47 496.83 712.45 562.58 750.47 628.34 826.51 628.34 864.53 562.58 826.51 496.83"/></g><g><polyline class="cls-4" points="172.84 745.66 171.97 744.16 161.25 725.62 179.58 693.93 199.27 659.87 275.32 659.87 275.41 660.02 313.33 725.62 302.61 744.16 301.75 745.66"/><line class="cls-4" x1="282.36" y1="779.18" x2="192.22" y2="779.18"/><polygon class="cls-4" points="389.48 594.12 313.44 594.12 275.42 659.87 313.44 725.63 389.48 725.63 427.49 659.87 389.48 594.12"/><polyline class="cls-4" points="420.33 779.18 510.48 779.18 522.12 759.05 529.85 745.66 530.73 744.16 541.44 725.62 503.88 660.67 503.51 660.03 503.42 659.87 427.5 659.87 427.39 659.87 407.68 693.94 389.36 725.62 400.08 744.16 400.95 745.66"/><polygon class="cls-4" points="960.5 528.36 884.46 528.36 846.44 594.12 884.46 659.87 960.5 659.87 998.52 594.12 960.5 528.36"/><polygon class="cls-4" points="1074.44 462.61 998.4 462.61 960.38 528.36 998.4 594.12 1074.44 594.12 1112.46 528.36 1074.44 462.61"/><polygon class="cls-4" points="1074.44 594.12 998.4 594.12 960.38 659.87 998.4 725.63 1074.44 725.63 1112.46 659.87 1074.44 594.12"/><polygon class="cls-4" points="1138.3 528.36 1138.3 659.87 1112.35 659.87 1074.47 594.36 1074.33 594.12 1092.66 562.44 1092.71 562.34 1112.35 528.36 1138.3 528.36"/><polygon class="cls-4" points="618.23 594.12 542.19 594.12 504.17 659.87 542.19 725.63 618.23 725.63 656.25 659.87 618.23 594.12"/><polygon class="cls-4" points="649.19 779.18 511.22 779.18 522.49 759.69 530.61 745.66 531.47 744.16 542.18 725.62 618.23 725.62 618.32 725.77 628.94 744.16 629.82 745.66 649.19 779.18"/><polygon class="cls-4" points="732.17 528.36 656.13 528.36 618.11 594.12 656.13 659.87 732.17 659.87 770.19 594.12 732.17 528.36"/><polygon class="cls-4" points="846.12 594.12 770.08 594.12 732.06 659.87 770.08 725.63 846.12 725.63 884.14 659.87 846.12 594.12"/></g></g><path class="cls-2" d="M1092.32,46.81l-510.16-.06L535.36,0H0V780H1140V94.43l-47.68-47.62ZM2.99,3H534.12l46.79,46.74,510.17,.07,45.92,45.86V699.05l-45.92,45.86H48.91L2.99,699.05V3Z"/><g><rect class="cls-8" x="18.94" y="19.04" width="34.83" height="12.18"/><rect class="cls-1" x="18.94" y="38.19" width="34.83" height="12.18"/><rect class="cls-7" x="18.94" y="57.33" width="34.83" height="12.18"/><rect class="cls-9" x="18.94" y="76.48" width="34.83" height="12.18"/><rect class="cls-6" x="18.94" y="95.62" width="34.83" height="12.18"/><rect class="cls-3" x="18.94" y="114.77" width="34.83" height="12.18"/></g></g></svg>