<?xml version="1.0" encoding="UTF-8"?><svg id="Layer_2" xmlns="http://www.w3.org/2000/svg" xmlns:xlink="http://www.w3.org/1999/xlink" viewBox="0 0 1920 193.77"><defs><style>.cls-1{fill:#fff;}.cls-2{fill:#05f;}.cls-3{stroke:#fff;stroke-miterlimit:10;stroke-width:2px;}.cls-3,.cls-4{fill:none;}.cls-5{fill:url(#linear-gradient);}</style><linearGradient id="linear-gradient" x1=".09" y1="101.58" x2="2238.16" y2="90.63" gradientTransform="matrix(1, 0, 0, 1, 0, 0)" gradientUnits="userSpaceOnUse"><stop offset="0" stop-color="#d66306"/><stop offset=".5" stop-color="#eb8206"/><stop offset=".86" stop-color="#f99606"/></linearGradient></defs><g id="Corner"><polygon class="cls-5" points="1338.43 0 0 0 0 83.94 1338.43 83.94 1338.43 146.85 1385.35 193.77 1920 193.77 1920 0 1338.43 0"/><polygon class="cls-3" points="1345.9 7.41 1345.9 7.47 7.47 7.47 7.47 76.47 1257.24 76.47 1345.9 76.47 1345.9 143.03 1391.61 186.36 1912.53 186.36 1912.53 7.41 1345.9 7.41"/></g><g id="Logo"><g><g><path class="cls-1" d="M1504.54,139.98c-1.45-.94-2.62-2.37-3.5-4.29-.88-1.92-1.32-4.28-1.32-7.08,0-2.54,.44-4.73,1.32-6.55,.88-1.82,2.07-3.21,3.57-4.15s3.18-1.42,5.04-1.42c1.14,0,2.1,.11,2.88,.34,.79,.22,1.41,.48,1.86,.78,.45,.29,.88,.64,1.3,1.03l-1.89,3.63c-.39-.44-.74-.77-1.05-1.01-.3-.24-.69-.43-1.16-.57-.47-.14-1.06-.22-1.78-.22-1.12,0-2.09,.34-2.9,1.01-.81,.67-1.43,1.61-1.86,2.8-.43,1.19-.64,2.56-.64,4.1,0,1.93,.22,3.59,.67,4.95,.44,1.37,1.05,2.4,1.81,3.09,.76,.69,1.61,1.04,2.56,1.04,1,0,1.89-.14,2.66-.43,.77-.29,1.36-.65,1.76-1.09l1.86,3.42c-.69,.58-1.52,1.06-2.49,1.45s-2.29,.59-3.96,.59-3.27-.47-4.72-1.41Z"/><path class="cls-1" d="M1525.08,139.86c-1.47-1.02-2.59-2.46-3.34-4.32-.75-1.87-1.13-4.06-1.13-6.59s.37-4.69,1.12-6.56c.75-1.87,1.85-3.31,3.31-4.32,1.46-1.02,3.22-1.52,5.29-1.52s3.96,.51,5.43,1.54c1.47,1.03,2.58,2.47,3.31,4.33s1.1,4.04,1.1,6.53-.38,4.72-1.14,6.59c-.76,1.87-1.87,3.31-3.33,4.32-1.46,1.02-3.22,1.52-5.28,1.52s-3.87-.51-5.35-1.52Zm8.04-3.14c.79-.65,1.42-1.65,1.88-2.98,.46-1.33,.69-2.96,.69-4.89,0-2.84-.47-5-1.41-6.49s-2.26-2.23-3.96-2.23-2.93,.74-3.84,2.23c-.91,1.49-1.36,3.66-1.36,6.52,0,1.95,.22,3.59,.65,4.9,.43,1.32,1.05,2.3,1.84,2.95,.79,.65,1.73,.97,2.81,.97,1,0,1.9-.33,2.69-.98Z"/><path class="cls-1" d="M1560.58,131.09v10.3h4.18v-15.45l-4.18,5.15Zm-15.49-14.55v24.84h4.19l-.15-14.61,5.82,7.53,5.82-7.53,4-5.18v-5.05h-.34l-9.51,11.65-9.45-11.65h-.37Z"/><path class="cls-1" d="M1582.29,118.53c1.55,1.32,2.33,3.56,2.33,6.71,0,1.71-.3,3.28-.91,4.71-.61,1.43-1.55,2.58-2.83,3.46-1.28,.87-2.87,1.31-4.77,1.31h-2.09v6.67h-4.35v-24.84h6.31c2.65,0,4.76,.66,6.31,1.99Zm-3.15,11.05c.75-.93,1.12-2.3,1.12-4.09,0-1.25-.15-2.26-.44-3.04-.29-.78-.77-1.36-1.44-1.74-.67-.38-1.56-.57-2.67-.57h-1.69v10.84h1.79c1.47,0,2.58-.47,3.33-1.4Z"/><path class="cls-1" d="M1591.79,139.26c-1.51-1.42-2.27-3.76-2.27-7.04v-15.68h4.39v16.17c0,1.84,.39,3.11,1.17,3.81,.78,.7,1.7,1.05,2.74,1.05s1.96-.34,2.7-1.03c.74-.69,1.11-1.97,1.11-3.83v-16.17h4.39v15.68c0,3.28-.74,5.62-2.21,7.04-1.47,1.42-3.45,2.13-5.92,2.13s-4.59-.71-6.1-2.13Z"/><path class="cls-1" d="M1626.14,120.57h-5.43v20.82h-4.35v-20.82h-5.43v-4.03h15.22v4.03Z"/><path class="cls-1" d="M1644.26,137.36v4.03h-12.96v-24.84h12.28v3.89h-8.06v5.81h6.41v3.78h-6.41v7.34h8.74Z"/><path class="cls-1" d="M1659.14,141.38l-6.04-8.83v8.83h-4.28v-24.42h6.54c5.58,0,8.37,2.59,8.37,7.78,0,1.16-.18,2.29-.54,3.41-.36,1.12-.95,2.11-1.76,2.97-.82,.86-1.86,1.46-3.13,1.79l6.07,8.48h-5.23Zm-4.25-11.04c.96,0,1.77-.24,2.45-.71,.68-.47,1.19-1.1,1.54-1.89,.35-.79,.52-1.65,.52-2.58,0-1.61-.36-2.8-1.07-3.56-.71-.76-1.9-1.14-3.55-1.14h-1.69v9.88h1.79Z"/></g><path class="cls-2" d="M1711.1,123.14l24.54-26.34-24.54-26.33-16.89-18.08h-16.46v1.52l37.98,43.05-37.98,42.74v1.69h80.97v-18.94l-47.62,.69Z"/><polygon class="cls-1" points="1758.72 52.39 1758.72 71.31 1726.03 71.31 1708.42 52.39 1758.72 52.39"/><g><path class="cls-2" d="M1499.71,52.39v57.98h10.2V52.39h-10.2Z"/><line class="cls-4" x1="1552.96" y1="86.99" x2="1552.56" y2="52.6"/><polyline class="cls-4" points="1523.07 65.15 1532.51 76.47 1560.78 110.37"/><path class="cls-1" d="M1585.95,61.54v15.22h16.42v9.32h-16.42v24.29h-10.2V52.38h29.01v9.15h-18.81Z"/><path class="cls-1" d="M1628.7,106.81c-3.48-2.37-6.11-5.74-7.89-10.09-1.78-4.36-2.67-9.48-2.67-15.38s.88-10.94,2.65-15.3c1.77-4.36,4.37-7.72,7.81-10.09,3.44-2.37,7.61-3.56,12.49-3.56s9.35,1.2,12.83,3.6c3.48,2.4,6.09,5.77,7.83,10.11,1.74,4.34,2.61,9.42,2.61,15.24s-.9,11.02-2.69,15.38c-1.79,4.36-4.42,7.72-7.87,10.09-3.45,2.37-7.61,3.56-12.47,3.56s-9.15-1.19-12.63-3.56Zm18.99-7.34c1.87-1.53,3.35-3.85,4.44-6.96,1.09-3.11,1.63-6.92,1.63-11.42,0-6.62-1.11-11.67-3.33-15.14-2.22-3.47-5.33-5.21-9.34-5.21s-6.93,1.74-9.07,5.21c-2.14,3.47-3.21,8.54-3.21,15.22,0,4.56,.51,8.37,1.53,11.44,1.02,3.07,2.47,5.36,4.34,6.88,1.87,1.51,4.09,2.27,6.64,2.27,2.36,0,4.48-.77,6.36-2.29Z"/><g><polygon class="cls-2" points="1552.56 52.39 1552.96 86.91 1550.17 83.12 1524.94 52.39 1523.07 52.39 1523.07 64.98 1532.51 76.35 1560.78 110.37 1562.36 110.37 1562.36 52.39 1552.56 52.39"/><polygon class="cls-2" points="1523.07 75.21 1523.07 110.15 1523.07 110.37 1532.88 110.37 1532.88 110.15 1532.88 86.95 1531.95 85.9 1523.07 75.21"/></g></g></g></g></svg>