<?xml version="1.0" encoding="UTF-8"?><svg id="Layer_2" xmlns="http://www.w3.org/2000/svg" xmlns:xlink="http://www.w3.org/1999/xlink" viewBox="0 0 1366 138.51"><defs><style>.cls-1{fill:#fff;}.cls-2{fill:#05f;}.cls-3{stroke:#fff;stroke-miterlimit:10;stroke-width:2px;}.cls-3,.cls-4{fill:none;}.cls-5{fill:url(#linear-gradient);}</style><linearGradient id="linear-gradient" x1=".06" y1="72.59" x2="1592.36" y2="64.8" gradientTransform="matrix(1, 0, 0, 1, 0, 0)" gradientUnits="userSpaceOnUse"><stop offset="0" stop-color="#d66306"/><stop offset=".5" stop-color="#eb8206"/><stop offset=".86" stop-color="#f99606"/></linearGradient></defs><g id="One"><polygon class="cls-5" points="952.24 0 0 0 0 60 952.24 60 952.24 104.97 985.62 138.51 1366 138.51 1366 0 952.24 0"/><polygon class="cls-3" points="957.55 5.29 957.55 5.34 5.31 5.34 5.31 54.66 894.47 54.66 957.55 54.66 957.55 102.24 990.08 133.21 1360.69 133.21 1360.69 5.29 957.55 5.29"/><g><g><path class="cls-1" d="M1070.42,100.06c-1.03-.67-1.86-1.69-2.49-3.07-.63-1.37-.94-3.06-.94-5.06,0-1.82,.31-3.38,.94-4.68,.62-1.3,1.47-2.29,2.54-2.97s2.26-1.01,3.58-1.01c.81,0,1.49,.08,2.05,.24s1,.35,1.32,.56c.32,.21,.63,.45,.92,.73l-1.34,2.59c-.28-.31-.53-.55-.74-.72-.22-.17-.49-.3-.82-.41-.33-.1-.75-.15-1.27-.15-.8,0-1.49,.24-2.06,.72s-1.02,1.15-1.32,2c-.3,.85-.46,1.83-.46,2.93,0,1.38,.16,2.56,.47,3.54,.32,.98,.74,1.72,1.28,2.21,.54,.49,1.15,.74,1.82,.74,.71,0,1.34-.1,1.89-.31,.55-.21,.97-.46,1.25-.78l1.32,2.44c-.49,.41-1.08,.76-1.77,1.04s-1.63,.42-2.81,.42-2.33-.34-3.36-1.01Z"/><path class="cls-1" d="M1085.03,99.97c-1.05-.73-1.84-1.76-2.38-3.09-.54-1.33-.8-2.9-.8-4.71s.27-3.35,.8-4.69c.53-1.33,1.32-2.36,2.35-3.09,1.04-.73,2.29-1.09,3.76-1.09s2.82,.37,3.86,1.1c1.05,.74,1.83,1.77,2.36,3.1s.79,2.89,.79,4.67-.27,3.38-.81,4.71c-.54,1.33-1.33,2.36-2.37,3.09-1.04,.73-2.29,1.09-3.76,1.09s-2.76-.36-3.8-1.09Zm5.72-2.25c.56-.47,1.01-1.18,1.34-2.13,.33-.95,.49-2.12,.49-3.5,0-2.03-.33-3.57-1-4.64s-1.61-1.59-2.81-1.59-2.09,.53-2.73,1.59c-.64,1.06-.97,2.62-.97,4.66,0,1.4,.15,2.56,.46,3.5,.31,.94,.74,1.64,1.31,2.11,.56,.46,1.23,.7,2,.7,.71,0,1.35-.23,1.91-.7Z"/><path class="cls-1" d="M1110.29,93.7v7.36h2.97v-11.05l-2.97,3.68Zm-11.02-10.4v17.76h2.98l-.11-10.45,4.14,5.38,4.14-5.38,2.84-3.7v-3.61h-.24l-6.77,8.33-6.72-8.33h-.27Z"/><path class="cls-1" d="M1125.73,84.72c1.1,.95,1.66,2.55,1.66,4.8,0,1.22-.22,2.35-.65,3.37-.43,1.02-1.1,1.85-2.01,2.47-.91,.62-2.04,.94-3.39,.94h-1.49v4.76h-3.1v-17.76h4.49c1.89,0,3.38,.47,4.49,1.42Zm-2.24,7.9c.53-.67,.8-1.64,.8-2.92,0-.89-.1-1.62-.31-2.17-.21-.56-.55-.97-1.03-1.24-.48-.27-1.11-.41-1.9-.41h-1.2v7.74h1.27c1.05,0,1.84-.33,2.37-1Z"/><path class="cls-1" d="M1132.49,99.54c-1.08-1.01-1.61-2.69-1.61-5.03v-11.2h3.12v11.56c0,1.32,.28,2.23,.83,2.73,.56,.5,1.21,.75,1.95,.75s1.39-.25,1.92-.74c.53-.49,.79-1.4,.79-2.74v-11.56h3.12v11.2c0,2.34-.52,4.02-1.57,5.03s-2.45,1.52-4.21,1.52-3.26-.51-4.34-1.52Z"/><path class="cls-1" d="M1156.93,86.18h-3.86v14.88h-3.1v-14.88h-3.86v-2.88h10.83v2.88Z"/><path class="cls-1" d="M1169.82,98.18v2.88h-9.22v-17.76h8.74v2.78h-5.74v4.15h4.56v2.7h-4.56v5.25h6.22Z"/><path class="cls-1" d="M1180.41,101.06l-4.3-6.31v6.31h-3.05v-17.46h4.66c3.97,0,5.95,1.85,5.95,5.56,0,.83-.13,1.64-.38,2.44-.26,.8-.67,1.5-1.25,2.12-.58,.62-1.32,1.04-2.23,1.28l4.32,6.06h-3.72Zm-3.02-7.89c.68,0,1.26-.17,1.75-.51,.48-.34,.85-.79,1.1-1.35,.25-.56,.37-1.18,.37-1.85,0-1.15-.25-2-.76-2.54-.51-.54-1.35-.81-2.53-.81h-1.2v7.06h1.27Z"/></g><path class="cls-2" d="M1217.37,88.02l17.46-18.83-17.46-18.82-12.02-12.92h-11.71v1.09l27.02,30.77-27.02,30.55v1.21h57.61v-13.54l-33.88,.49Z"/><polygon class="cls-1" points="1251.25 37.44 1251.25 50.97 1227.99 50.97 1215.47 37.44 1251.25 37.44"/><g><path class="cls-2" d="M1066.98,37.45v41.45h7.26V37.45h-7.26Z"/><line class="cls-4" x1="1104.86" y1="62.18" x2="1104.58" y2="37.6"/><polyline class="cls-4" points="1083.6 46.57 1090.32 54.66 1110.43 78.89"/><path class="cls-1" d="M1128.34,43.99v10.88h11.68v6.66h-11.68v17.36h-7.26V37.44h20.64v6.54h-13.38Z"/><path class="cls-1" d="M1158.75,76.35c-2.48-1.7-4.35-4.1-5.61-7.21-1.27-3.11-1.9-6.78-1.9-10.99s.63-7.82,1.89-10.94c1.26-3.11,3.11-5.52,5.56-7.21,2.45-1.7,5.41-2.54,8.89-2.54s6.65,.86,9.13,2.57c2.48,1.72,4.33,4.12,5.57,7.23,1.24,3.1,1.86,6.74,1.86,10.89s-.64,7.88-1.91,10.99c-1.28,3.11-3.14,5.52-5.6,7.21-2.46,1.7-5.42,2.54-8.87,2.54s-6.51-.85-8.99-2.54Zm13.51-5.25c1.33-1.09,2.39-2.75,3.16-4.97,.78-2.22,1.16-4.94,1.16-8.16,0-4.73-.79-8.34-2.37-10.82-1.58-2.48-3.79-3.72-6.65-3.72s-4.93,1.24-6.45,3.72c-1.52,2.48-2.28,6.11-2.28,10.88,0,3.26,.36,5.98,1.09,8.18,.73,2.19,1.76,3.83,3.09,4.91,1.33,1.08,2.91,1.62,4.72,1.62,1.68,0,3.19-.55,4.52-1.64Z"/><g><polygon class="cls-2" points="1104.58 37.45 1104.86 62.12 1102.88 59.41 1084.93 37.45 1083.6 37.45 1083.6 46.45 1090.32 54.57 1110.43 78.89 1111.56 78.89 1111.56 37.45 1104.58 37.45"/><polygon class="cls-2" points="1083.6 53.76 1083.6 78.74 1083.6 78.89 1090.58 78.89 1090.58 78.74 1090.58 62.15 1089.92 61.4 1083.6 53.76"/></g></g></g></g></svg>