<?xml version="1.0" encoding="UTF-8"?><svg id="Layer_2" xmlns="http://www.w3.org/2000/svg" viewBox="0 0 129.8 46.95"><defs><style>.cls-1{fill:#fff;}.cls-2{fill:#05f;}</style></defs><g id="Layer_8"><g><g><path class="cls-1" d="M52.04,9.82h4.13v27.3h-4.13V9.82Z"/><path class="cls-1" d="M61.51,9.82h4.56l5.26,18.33V9.82h4.06v27.3h-4.37l-5.46-17.47v17.47h-4.06V9.82Z"/><path class="cls-1" d="M80.74,9.82h4.13v27.3h-4.13V9.82Z"/><path class="cls-1" d="M91.66,35.72c-1.2-1.2-1.79-2.76-1.79-4.68V15.91c0-1.92,.6-3.48,1.79-4.68,1.2-1.2,2.76-1.79,4.68-1.79s3.48,.6,4.68,1.79c1.2,1.2,1.79,2.76,1.79,4.68v3.2h-4.06v-3.2c0-.78-.22-1.4-.66-1.87-.44-.47-1.01-.7-1.72-.7s-1.27,.23-1.72,.7c-.44,.47-.66,1.09-.66,1.87v15.13c0,.78,.22,1.4,.66,1.87,.44,.47,1.01,.7,1.72,.7s1.27-.23,1.72-.7c.44-.47,.66-1.09,.66-1.87v-3.9h4.06v3.9c0,1.92-.6,3.48-1.79,4.68-1.2,1.2-2.76,1.79-4.68,1.79s-3.48-.6-4.68-1.79Z"/><path class="cls-1" d="M107.42,9.82h4.13v27.3h-4.13V9.82Z"/><path class="cls-1" d="M118.37,35.7c-1.22-1.21-1.83-2.8-1.83-4.78v-14.9c0-1.98,.61-3.57,1.83-4.78,1.22-1.21,2.82-1.81,4.8-1.81s3.57,.6,4.8,1.81c1.22,1.21,1.83,2.8,1.83,4.78v14.9c0,1.98-.61,3.57-1.83,4.78-1.22,1.21-2.82,1.81-4.8,1.81s-3.58-.6-4.8-1.81Zm6.63-2.79c.44-.47,.66-1.13,.66-1.99v-14.9c0-.86-.22-1.52-.66-1.99-.44-.47-1.05-.7-1.83-.7s-1.39,.23-1.83,.7c-.44,.47-.66,1.13-.66,1.99v14.9c0,.86,.22,1.52,.66,1.99,.44,.47,1.05,.7,1.83,.7s1.39-.23,1.83-.7Z"/></g><polygon class="cls-2" points="37.02 13.52 37.02 6.39 21.84 14.93 6.66 23.47 21.84 32.01 37.02 40.55 37.02 33.43 40.65 33.43 40.65 46.95 20.33 35.2 0 23.47 20.33 11.73 40.65 0 40.65 13.52 37.02 13.52"/></g></g></svg>