<?xml version="1.0" encoding="UTF-8"?><svg id="Layer_2" xmlns="http://www.w3.org/2000/svg" viewBox="0 0 350.78 116.53"><defs><style>.cls-1{fill:#fff;}.cls-2{fill:#05f;}.cls-3{fill:none;}</style></defs><g id="Three"><g><g><path class="cls-1" d="M6.53,114.69c-1.96-1.23-3.55-3.1-4.74-5.62C.6,106.55,0,103.46,0,99.8,0,96.47,.59,93.61,1.78,91.22c1.19-2.39,2.8-4.2,4.83-5.44s4.31-1.85,6.82-1.85c1.54,0,2.84,.15,3.91,.44s1.9,.63,2.51,1.02c.61,.38,1.2,.83,1.76,1.34l-2.56,4.75c-.53-.57-1.01-1.01-1.42-1.32-.41-.31-.93-.56-1.56-.75-.63-.19-1.44-.28-2.41-.28-1.52,0-2.83,.44-3.93,1.32s-1.93,2.1-2.51,3.66c-.58,1.56-.87,3.35-.87,5.37,0,2.53,.3,4.69,.9,6.49,.6,1.79,1.42,3.14,2.44,4.05,1.03,.9,2.18,1.36,3.46,1.36,1.36,0,2.55-.19,3.6-.56,1.04-.38,1.84-.85,2.39-1.42l2.51,4.48c-.93,.75-2.05,1.39-3.37,1.9s-3.1,.77-5.36,.77-4.43-.61-6.4-1.84Z"/><path class="cls-1" d="M34.36,114.53c-2-1.33-3.5-3.22-4.52-5.66-1.02-2.44-1.53-5.32-1.53-8.63s.51-6.14,1.52-8.58c1.01-2.44,2.51-4.33,4.48-5.66,1.97-1.33,4.36-2,7.16-2s5.36,.67,7.36,2.02c2,1.35,3.49,3.24,4.49,5.67s1.5,5.29,1.5,8.55-.51,6.18-1.54,8.63-2.53,4.33-4.51,5.66c-1.98,1.33-4.36,2-7.15,2s-5.25-.67-7.24-2Zm10.89-4.12c1.07-.86,1.92-2.16,2.55-3.9,.62-1.74,.94-3.88,.94-6.41,0-3.71-.64-6.55-1.91-8.49s-3.06-2.92-5.36-2.92-3.97,.97-5.2,2.92c-1.23,1.95-1.84,4.79-1.84,8.54,0,2.56,.29,4.7,.88,6.42,.59,1.72,1.42,3.01,2.49,3.86,1.07,.85,2.34,1.27,3.8,1.27,1.36,0,2.57-.43,3.64-1.29Z"/><path class="cls-1" d="M82.43,103.05v13.48h5.66v-20.23l-5.66,6.75Zm-20.98-19.04v32.53h5.67l-.21-19.13,7.89,9.86,7.88-9.86,5.41-6.78v-6.61h-.46l-12.88,15.26-12.79-15.26h-.51Z"/><path class="cls-1" d="M111.83,86.6c2.1,1.73,3.15,4.66,3.15,8.78,0,2.24-.41,4.3-1.23,6.17-.82,1.87-2.1,3.38-3.83,4.53-1.73,1.14-3.88,1.72-6.45,1.72h-2.83v8.73h-5.89v-32.53h8.54c3.59,0,6.44,.87,8.54,2.6Zm-4.26,14.47c1.01-1.22,1.52-3.01,1.52-5.35,0-1.63-.2-2.96-.59-3.98-.4-1.02-1.05-1.78-1.95-2.28-.91-.5-2.11-.75-3.62-.75h-2.29v14.19h2.42c2,0,3.5-.61,4.51-1.83Z"/><path class="cls-1" d="M124.7,113.75c-2.05-1.86-3.07-4.93-3.07-9.22v-20.52h5.94v21.17c0,2.41,.53,4.08,1.59,4.99,1.06,.92,2.3,1.37,3.71,1.37s2.65-.45,3.66-1.35c1.01-.9,1.51-2.57,1.51-5.02v-21.17h5.94v20.52c0,4.29-1,7.36-2.99,9.22s-4.67,2.78-8.02,2.78-6.21-.93-8.26-2.78Z"/><path class="cls-1" d="M171.23,89.27h-7.36v27.25h-5.89v-27.25h-7.36v-5.27h20.61v5.27Z"/><path class="cls-1" d="M195.77,111.26v5.27h-17.55v-32.53h16.63v5.09h-10.92v7.61h8.68v4.95h-8.68v9.61h11.84Z"/><path class="cls-1" d="M215.92,116.53l-8.18-11.56v11.56h-5.8v-31.98h8.86c7.55,0,11.33,3.39,11.33,10.19,0,1.51-.24,3-.73,4.46-.49,1.46-1.28,2.76-2.39,3.89-1.1,1.13-2.52,1.91-4.24,2.34l8.22,11.1h-7.08Zm-5.76-14.45c1.29,0,2.4-.31,3.32-.93,.92-.62,1.62-1.44,2.09-2.48,.47-1.03,.71-2.16,.71-3.38,0-2.11-.48-3.66-1.45-4.66-.97-.99-2.57-1.49-4.81-1.49h-2.28v12.94h2.42Z"/></g><path class="cls-2" d="M286.28,92.63l33.24-34.49-33.24-34.47L263.41,0h-22.29V1.99l51.43,56.36-51.43,55.97v2.21h109.66v-24.8l-64.5,.9ZM282.65,0l23.85,24.77h44.28V0h-68.13Z"/><g><path class="cls-2" d="M0,0V75.92H13.82V0H0Z"/><line class="cls-3" x1="72.11" y1="45.32" x2="71.57" y2=".28"/><polyline class="cls-3" points="31.63 16.71 44.42 31.54 82.7 75.92"/><path class="cls-1" d="M116.79,11.98V31.91h22.23v12.2h-22.23v31.81h-13.82V0h39.29V11.98h-25.47Z"/><path class="cls-1" d="M174.7,71.26c-4.71-3.11-8.28-7.51-10.69-13.21-2.41-5.7-3.62-12.41-3.62-20.14s1.19-14.33,3.59-20.03c2.39-5.7,5.92-10.11,10.58-13.21C179.22,1.56,184.86,0,191.48,0s12.66,1.57,17.38,4.71c4.71,3.14,8.25,7.55,10.61,13.24,2.36,5.69,3.53,12.34,3.53,19.95s-1.21,14.43-3.64,20.14c-2.43,5.71-5.98,10.11-10.66,13.21-4.68,3.11-10.31,4.66-16.89,4.66s-12.4-1.55-17.11-4.66Zm25.72-9.61c2.54-2,4.54-5.04,6.02-9.11,1.48-4.07,2.21-9.06,2.21-14.95,0-8.67-1.5-15.28-4.51-19.82-3-4.54-7.22-6.82-12.66-6.82s-9.38,2.27-12.28,6.82c-2.9,4.55-4.34,11.19-4.34,19.93,0,5.97,.69,10.96,2.08,14.98,1.38,4.02,3.35,7.02,5.88,9,2.54,1.98,5.53,2.98,8.99,2.98,3.2,0,6.07-1,8.61-3Z"/><g><polygon class="cls-2" points="71.57 0 72.11 45.2 68.33 40.24 34.16 0 31.63 0 31.63 16.49 44.42 31.37 82.7 75.92 84.85 75.92 84.85 0 71.57 0"/><polygon class="cls-2" points="31.63 29.89 31.63 75.64 31.63 75.92 44.91 75.92 44.91 75.64 44.91 45.25 43.66 43.88 31.63 29.89"/></g></g></g></g></svg>